<svg width="177" height="45" viewBox="0 0 177 45" fill="none" xmlns="http://www.w3.org/2000/svg">
<path d="M8 0H95L86.3957 45H0.5L8 0Z" fill="white"/>
<path d="M94.4681 0H177L169.5 45H85L94.4681 0Z" fill="#D9201B"/>
<path d="M18.1062 33L22.0262 13.456H28.9702C30.7249 13.456 32.0409 13.8293 32.9182 14.576C33.8142 15.3227 34.2622 16.5827 34.2622 18.356C34.2622 19.42 34.0942 20.4 33.7582 21.296C33.4222 22.192 32.9555 22.9667 32.3582 23.62C31.7609 24.2733 31.0422 24.7867 30.2022 25.16C29.3622 25.5147 28.4289 25.692 27.4022 25.692H23.3982L21.9422 33H18.1062ZM24.0702 22.332H27.7382C28.3915 22.332 28.8862 22.164 29.2222 21.828C29.5769 21.492 29.8289 20.9413 29.9782 20.176C30.0902 19.6347 30.1649 19.2333 30.2022 18.972C30.2582 18.692 30.2862 18.4587 30.2862 18.272C30.2862 17.7867 30.1742 17.4227 29.9502 17.18C29.7449 16.9373 29.3622 16.816 28.8022 16.816H25.1902L24.0702 22.332ZM34.239 33L38.159 13.456H41.995L38.747 29.64H45.131L44.459 33H34.239ZM52.8594 33.336C51.6648 33.336 50.6754 33.168 49.8914 32.832C49.1074 32.496 48.4821 32.0387 48.0154 31.46C47.5674 30.8627 47.2501 30.172 47.0634 29.388C46.8768 28.604 46.7834 27.764 46.7834 26.868C46.7834 26.0093 46.8488 25.1507 46.9794 24.292C47.1101 23.4147 47.2594 22.5747 47.4274 21.772C47.7074 20.4467 48.0901 19.252 48.5754 18.188C49.0794 17.124 49.7048 16.2187 50.4514 15.472C51.1981 14.7067 52.0661 14.128 53.0554 13.736C54.0634 13.3253 55.2114 13.12 56.4994 13.12C57.6941 13.12 58.6741 13.288 59.4394 13.624C60.2234 13.96 60.8488 14.4267 61.3154 15.024C61.7821 15.6027 62.1088 16.284 62.2954 17.068C62.4821 17.852 62.5754 18.692 62.5754 19.588C62.5754 20.4467 62.5101 21.3147 62.3794 22.192C62.2488 23.0507 62.0994 23.8813 61.9314 24.684C61.6514 26.0093 61.2594 27.204 60.7554 28.268C60.2701 29.332 59.6541 30.2467 58.9074 31.012C58.1608 31.7587 57.2834 32.3373 56.2754 32.748C55.2861 33.14 54.1474 33.336 52.8594 33.336ZM53.3634 29.948C53.9981 29.948 54.5488 29.864 55.0154 29.696C55.4821 29.528 55.8834 29.248 56.2194 28.856C56.5741 28.464 56.8728 27.932 57.1154 27.26C57.3768 26.588 57.6101 25.748 57.8154 24.74L58.4034 21.8C58.4968 21.3707 58.5621 20.9787 58.5994 20.624C58.6554 20.2693 58.6834 19.9707 58.6834 19.728C58.6834 18.608 58.4688 17.796 58.0394 17.292C57.6101 16.7693 56.9288 16.508 55.9954 16.508C55.3608 16.508 54.8101 16.592 54.3434 16.76C53.8768 16.928 53.4661 17.208 53.1114 17.6C52.7754 17.992 52.4768 18.524 52.2154 19.196C51.9728 19.868 51.7488 20.708 51.5434 21.716L50.9554 24.656C50.8621 25.0853 50.7874 25.4773 50.7314 25.832C50.6941 26.1867 50.6754 26.4853 50.6754 26.728C50.6754 27.848 50.8901 28.6693 51.3194 29.192C51.7488 29.696 52.4301 29.948 53.3634 29.948ZM72.793 16.816L69.545 33H65.709L68.957 16.816H64.421L65.093 13.456H78.001L77.329 16.816H72.793Z" fill="#D9201B"/>
<path d="M113.022 33H100.898L101.598 29.5L108.066 24.152C108.626 23.6853 109.092 23.2653 109.466 22.892C109.858 22.5 110.175 22.136 110.418 21.8C110.679 21.4453 110.875 21.0907 111.006 20.736C111.136 20.3813 111.248 19.9987 111.342 19.588C111.379 19.42 111.407 19.252 111.426 19.084C111.463 18.8973 111.482 18.7107 111.482 18.524C111.482 17.8147 111.323 17.292 111.006 16.956C110.688 16.6013 110.156 16.424 109.41 16.424C108.57 16.424 107.926 16.6573 107.478 17.124C107.048 17.572 106.703 18.3 106.442 19.308L103.25 17.992C103.828 16.3867 104.622 15.1733 105.63 14.352C106.638 13.5307 108.038 13.12 109.83 13.12C111.734 13.12 113.134 13.5587 114.03 14.436C114.944 15.2947 115.402 16.592 115.402 18.328C115.402 19.224 115.262 20.0453 114.982 20.792C114.702 21.52 114.328 22.2013 113.862 22.836C113.395 23.452 112.872 24.0307 112.294 24.572C111.715 25.0947 111.118 25.608 110.502 26.112L105.994 29.808H113.666L113.022 33ZM122.207 33.336C118.642 33.336 116.859 31.2733 116.859 27.148C116.859 26.3827 116.915 25.552 117.027 24.656C117.158 23.76 117.363 22.6213 117.643 21.24C118.24 18.4773 119.183 16.4333 120.471 15.108C121.778 13.7827 123.495 13.12 125.623 13.12C129.188 13.12 130.971 15.1827 130.971 19.308C130.971 20.0733 130.906 20.904 130.775 21.8C130.663 22.696 130.467 23.8347 130.187 25.216C129.59 27.9787 128.638 30.0227 127.331 31.348C126.043 32.6733 124.335 33.336 122.207 33.336ZM122.599 30.2C123.103 30.2 123.532 30.1253 123.887 29.976C124.242 29.8267 124.55 29.5653 124.811 29.192C125.072 28.8 125.306 28.268 125.511 27.596C125.716 26.924 125.922 26.056 126.127 24.992L126.799 21.548C126.911 20.988 126.995 20.4747 127.051 20.008C127.126 19.5227 127.163 19.1213 127.163 18.804C127.163 17.9267 127.023 17.2827 126.743 16.872C126.463 16.4613 125.959 16.256 125.231 16.256C124.727 16.256 124.298 16.3307 123.943 16.48C123.588 16.6293 123.28 16.9 123.019 17.292C122.758 17.6653 122.524 18.188 122.319 18.86C122.114 19.532 121.908 20.4 121.703 21.464L121.031 24.908C120.919 25.468 120.826 25.9907 120.751 26.476C120.695 26.9427 120.667 27.3347 120.667 27.652C120.667 28.5293 120.807 29.1733 121.087 29.584C121.367 29.9947 121.871 30.2 122.599 30.2ZM137.328 33.336C133.763 33.336 131.98 31.2733 131.98 27.148C131.98 26.3827 132.036 25.552 132.148 24.656C132.279 23.76 132.484 22.6213 132.764 21.24C133.361 18.4773 134.304 16.4333 135.592 15.108C136.899 13.7827 138.616 13.12 140.744 13.12C144.309 13.12 146.092 15.1827 146.092 19.308C146.092 20.0733 146.027 20.904 145.896 21.8C145.784 22.696 145.588 23.8347 145.308 25.216C144.711 27.9787 143.759 30.0227 142.452 31.348C141.164 32.6733 139.456 33.336 137.328 33.336ZM137.72 30.2C138.224 30.2 138.653 30.1253 139.008 29.976C139.363 29.8267 139.671 29.5653 139.932 29.192C140.193 28.8 140.427 28.268 140.632 27.596C140.837 26.924 141.043 26.056 141.248 24.992L141.92 21.548C142.032 20.988 142.116 20.4747 142.172 20.008C142.247 19.5227 142.284 19.1213 142.284 18.804C142.284 17.9267 142.144 17.2827 141.864 16.872C141.584 16.4613 141.08 16.256 140.352 16.256C139.848 16.256 139.419 16.3307 139.064 16.48C138.709 16.6293 138.401 16.9 138.14 17.292C137.879 17.6653 137.645 18.188 137.44 18.86C137.235 19.532 137.029 20.4 136.824 21.464L136.152 24.908C136.04 25.468 135.947 25.9907 135.872 26.476C135.816 26.9427 135.788 27.3347 135.788 27.652C135.788 28.5293 135.928 29.1733 136.208 29.584C136.488 29.9947 136.992 30.2 137.72 30.2ZM152.449 33.336C148.884 33.336 147.101 31.2733 147.101 27.148C147.101 26.3827 147.157 25.552 147.269 24.656C147.4 23.76 147.605 22.6213 147.885 21.24C148.482 18.4773 149.425 16.4333 150.713 15.108C152.02 13.7827 153.737 13.12 155.865 13.12C159.43 13.12 161.213 15.1827 161.213 19.308C161.213 20.0733 161.148 20.904 161.017 21.8C160.905 22.696 160.709 23.8347 160.429 25.216C159.832 27.9787 158.88 30.0227 157.573 31.348C156.285 32.6733 154.577 33.336 152.449 33.336ZM152.841 30.2C153.345 30.2 153.774 30.1253 154.129 29.976C154.484 29.8267 154.792 29.5653 155.053 29.192C155.314 28.8 155.548 28.268 155.753 27.596C155.958 26.924 156.164 26.056 156.369 24.992L157.041 21.548C157.153 20.988 157.237 20.4747 157.293 20.008C157.368 19.5227 157.405 19.1213 157.405 18.804C157.405 17.9267 157.265 17.2827 156.985 16.872C156.705 16.4613 156.201 16.256 155.473 16.256C154.969 16.256 154.54 16.3307 154.185 16.48C153.83 16.6293 153.522 16.9 153.261 17.292C153 17.6653 152.766 18.188 152.561 18.86C152.356 19.532 152.15 20.4 151.945 21.464L151.273 24.908C151.161 25.468 151.068 25.9907 150.993 26.476C150.937 26.9427 150.909 27.3347 150.909 27.652C150.909 28.5293 151.049 29.1733 151.329 29.584C151.609 29.9947 152.113 30.2 152.841 30.2Z" fill="white"/>
</svg>
